<svg width="143" height="20" viewBox="0 0 143 20" fill="none" xmlns="http://www.w3.org/2000/svg">
<path d="M0 1.1167H5.52203C7.94559 1.1167 9.94988 3.1652 9.94988 5.66775C9.94988 7.30444 9.11135 8.74052 7.85356 9.55358C10.0828 9.83868 11.811 11.8027 11.8212 14.1891C11.8212 16.7445 9.79649 18.8458 7.29113 18.8352H1.71797H0.0102243L0 1.1167ZM1.70774 1.82417L1.71797 9.52191H4.76531C6.82073 9.52191 8.47734 7.79017 8.47734 5.66775C8.47734 3.56645 6.82073 1.83474 4.76531 1.83474L1.70774 1.82417ZM1.70774 10.2716L1.71797 18.0221H6.29921C8.49779 18.0221 10.3282 16.4382 10.3282 14.1891C10.3282 11.94 8.49779 10.2716 6.28898 10.2716H1.70774Z" fill="white"/>
<path d="M19.3984 1.1167H24.9205C27.344 1.1167 29.3483 3.18633 29.3483 5.69945C29.3483 8.18088 27.3952 10.1977 25.0227 10.2716C27.9883 11.7605 30.0232 14.9071 30.0232 18.5395C30.0232 18.6135 30.0232 18.7191 30.0232 18.793H28.5609C28.5609 18.7191 28.5609 18.6135 28.5609 18.5395C28.5609 14.6009 26.2089 11.2219 23.0082 10.2716H21.1062L21.1164 18.8669H19.4087L19.3984 1.1167ZM21.1062 1.85586L21.1164 9.52191H23.0184H24.1535C26.2089 9.52191 27.8655 7.81129 27.8655 5.68888C27.8655 3.56646 26.2089 1.85586 24.1535 1.85586H21.1062Z" fill="white"/>
<path d="M38.0918 1.08447H39.7995L39.8098 18.8346H38.102L38.0918 1.08447Z" fill="white"/>
<path d="M49.7597 18.1166L57.286 18.1272V18.8452L49.7597 18.8347H48.052L48.0417 1.08447H49.7495L49.7597 18.1166Z" fill="white"/>
<path d="M66.1723 18.1274L73.6986 18.1379V18.8559L66.1723 18.8454H64.4646L64.4543 1.09521H66.1621L66.1723 18.1274Z" fill="white"/>
<path d="M81.2043 1.09521H82.9121L82.9223 18.8454H81.2146L81.2043 1.09521Z" fill="white"/>
<path d="M105.154 18.8248H103.324C101.391 13.7141 99.4581 8.5928 97.5458 3.4821L91.4716 18.8142H90.7251L97.7197 1.0957H98.4866C100.685 7.00891 102.914 12.9116 105.154 18.8248Z" fill="#EC008C"/>
<path d="M112.935 1.09521L122.998 16.3428L122.988 1.10577H123.683L123.693 17.3988V18.8559H122.732L113.017 4.11517L113.028 18.8454H112.332L112.322 3.03812L111.033 1.09521H112.935Z" fill="white"/>
<path d="M130.8 18.8769L140.484 1.74972L131.526 1.73916V1L142.816 1.01057L133.101 18.1589L143 18.1694V18.8875L130.8 18.8769Z" fill="white"/>
</svg>
