<svg width="13" height="11" viewBox="0 0 13 11" fill="none" xmlns="http://www.w3.org/2000/svg">
<path d="M12.4905 1.22545C12.026 1.43328 11.531 1.57103 11.015 1.63792C11.5459 1.31463 11.951 0.806617 12.1415 0.194289C11.6466 0.495277 11.1001 0.70788 10.5177 0.826524C10.0478 0.316117 9.37799 0 8.6473 0C7.22963 0 6.08832 1.1737 6.08832 2.61255C6.08832 2.81958 6.10549 3.01864 6.14765 3.20815C4.0188 3.10225 2.13509 2.06153 0.869648 0.476167C0.648723 0.867133 0.519135 1.31463 0.519135 1.79637C0.519135 2.70093 0.975817 3.50277 1.65655 3.96699C1.24514 3.95903 0.841545 3.8372 0.499618 3.6453C0.499618 3.65327 0.499618 3.66362 0.499618 3.67397C0.499618 4.94322 1.38722 5.99747 2.55118 6.24033C2.34274 6.29846 2.11557 6.32633 1.87981 6.32633C1.71588 6.32633 1.55038 6.31677 1.39503 6.28174C1.72681 7.31609 2.66827 8.07652 3.78773 8.1012C2.91652 8.79634 1.81034 9.21518 0.612813 9.21518C0.402817 9.21518 0.201409 9.20562 0 9.17935C1.13429 9.92545 2.47857 10.3514 3.92825 10.3514C8.64027 10.3514 11.2164 6.37012 11.2164 2.91911C11.2164 2.80365 11.2125 2.69217 11.2071 2.58149C11.7153 2.21362 12.1423 1.75417 12.4905 1.22545Z" fill="#C8CACC"/>
</svg>
